<svg width="18" height="17" viewBox="0 0 18 17" fill="none" xmlns="http://www.w3.org/2000/svg">
<path d="M1.16446 17H1.38893L3.85814 16.5703C4.98051 16.3555 5.99065 15.8183 6.7763 15.0664L16.9899 5.39811C17.6633 4.86098 18 4.00158 18 3.14218C18 2.28278 17.6633 1.53081 16.9899 0.886256C15.7553 -0.295419 13.6228 -0.295419 12.2759 0.886256L2.06235 10.4471C1.2767 11.1991 0.715511 12.1659 0.491037 13.2401L0.0420888 15.7109C-0.0701481 16.0332 0.042089 16.4629 0.3788 16.6777C0.603274 16.8926 0.827747 17 1.16446 17ZM13.8472 2.49763C14.0717 2.28278 14.4084 2.17536 14.6329 2.17536C14.9696 2.17536 15.1941 2.28278 15.4186 2.49763C15.643 2.71248 15.7553 2.92733 15.7553 3.14218C15.7553 3.24961 15.7553 3.57188 15.4186 3.89416L14.9696 4.32386L13.3983 2.92733L13.8472 2.49763ZM2.73578 13.7773C2.84801 13.1327 3.18472 12.5956 3.74591 12.0585L11.827 4.43128L13.3983 5.8278L5.31722 13.455C4.86828 13.8847 4.19486 14.207 3.52143 14.3144L2.62354 14.5292L2.73578 13.7773Z" fill="white"/>
</svg>
