<svg width="19" height="18" viewBox="0 0 19 18" fill="none" xmlns="http://www.w3.org/2000/svg">
<path d="M2.09036 17.8394H2.31484L4.78405 17.4097C5.90642 17.1948 6.91655 16.6577 7.70221 15.9057L17.9158 6.23746C18.5892 5.70034 18.9259 4.84094 18.9259 3.98154C18.9259 3.12214 18.5892 2.37016 17.9158 1.72561C16.6812 0.543937 14.5487 0.543937 13.2018 1.72561L2.98826 11.2864C2.2026 12.0384 1.64141 13.0052 1.41694 14.0795L0.967992 16.5503C0.855755 16.8725 0.967992 17.3022 1.3047 17.5171C1.52918 17.7319 1.75365 17.8394 2.09036 17.8394ZM14.7731 3.33699C14.9976 3.12214 15.3343 3.01471 15.5588 3.01471C15.8955 3.01471 16.12 3.12214 16.3445 3.33699C16.5689 3.55184 16.6812 3.76669 16.6812 3.98154C16.6812 4.08896 16.6812 4.41124 16.3445 4.73351L15.8955 5.16321L14.3242 3.76669L14.7731 3.33699ZM3.66168 14.6166C3.77392 13.9721 4.11063 13.4349 4.67181 12.8978L12.7529 5.27064L14.3242 6.66716L6.24313 14.2943C5.79418 14.724 5.12076 15.0463 4.44734 15.1537L3.54944 15.3686L3.66168 14.6166Z" fill="#062357"/>
</svg>
