<svg width="19" height="18" viewBox="0 0 19 18" fill="none" xmlns="http://www.w3.org/2000/svg">
<path d="M2.05594 17.8394H2.28041L4.74962 17.4097C5.87199 17.1948 6.88213 16.6577 7.66778 15.9057L17.8813 6.23746C18.5548 5.70034 18.8915 4.84094 18.8915 3.98154C18.8915 3.12214 18.5548 2.37016 17.8813 1.72561C16.6467 0.543937 14.5142 0.543937 13.1674 1.72561L2.95383 11.2864C2.16817 12.0384 1.60699 13.0052 1.38252 14.0795L0.933568 16.5503C0.821331 16.8725 0.933569 17.3022 1.27028 17.5171C1.49475 17.7319 1.71923 17.8394 2.05594 17.8394ZM14.7387 3.33699C14.9632 3.12214 15.2999 3.01471 15.5244 3.01471C15.8611 3.01471 16.0856 3.12214 16.31 3.33699C16.5345 3.55184 16.6467 3.76669 16.6467 3.98154C16.6467 4.08896 16.6467 4.41124 16.31 4.73351L15.8611 5.16321L14.2898 3.76669L14.7387 3.33699ZM3.62725 14.6166C3.73949 13.9721 4.0762 13.4349 4.63739 12.8978L12.7184 5.27064L14.2898 6.66716L6.2087 14.2943C5.75976 14.724 5.08633 15.0463 4.41291 15.1537L3.51502 15.3686L3.62725 14.6166Z" fill="#81C7FA"/>
</svg>
