<svg width="21" height="29" viewBox="0 0 21 29" fill="none" xmlns="http://www.w3.org/2000/svg">
<path d="M1.81755 7.24609H18.8228L17.2049 25.7904C17.1267 26.6869 16.3762 27.3748 15.4763 27.3748H5.16408C4.26419 27.3748 3.51363 26.6869 3.43541 25.7904L1.81755 7.24609Z" stroke="white" stroke-width="1.8"/>
<path d="M0.999985 5.89929C0.999985 4.94096 1.77688 4.16406 2.73521 4.16406H18.1074C19.0657 4.16406 19.8426 4.94096 19.8426 5.89929V6.46151C19.8426 6.94067 19.4542 7.32912 18.975 7.32912H1.8676C1.38843 7.32912 0.999985 6.94067 0.999985 6.46151V5.89929Z" stroke="white" stroke-width="1.8" stroke-linejoin="round"/>
<path d="M8.34532 2.73523C8.34532 1.7769 9.12222 1 10.0806 1H10.7619C11.7202 1 12.4971 1.7769 12.4971 2.73523V4.16506H8.34532V2.73523Z" stroke="white" stroke-width="1.8"/>
<path d="M10.495 23.5574V11.7578M7.37158 23.5574L6.33044 11.7578M13.6184 23.5574L14.6595 11.7578" stroke="white" stroke-width="1.8" stroke-linecap="round"/>
</svg>
