<svg width="28" height="18" viewBox="0 0 28 18" fill="none" xmlns="http://www.w3.org/2000/svg">
<path d="M1.06082 2.73257C1.33378 2.80862 1.59618 2.91533 1.84247 3.05043C2.70762 3.54039 3.69637 3.79907 4.70389 3.79907C5.71141 3.79907 6.70016 3.54039 7.5653 3.05043C8.11031 2.75794 8.7258 2.60422 9.35194 2.60422C9.97809 2.60422 10.5936 2.75794 11.1386 3.05043C12.0142 3.5255 13.0053 3.7754 14.014 3.7754C15.0226 3.7754 16.0137 3.5255 16.8893 3.05043C17.4343 2.75794 18.0498 2.60422 18.676 2.60422C19.3021 2.60422 19.9176 2.75794 20.4626 3.05043C21.3472 3.53013 22.3471 3.78556 23.3659 3.79212C24.3502 3.79019 25.3153 3.53378 26.1575 3.05043C26.4038 2.91533 26.6662 2.80862 26.9392 2.73257C27.2946 2.63421 27.5942 2.40593 27.7722 2.09794C27.9502 1.78995 27.992 1.42747 27.8883 1.09026C27.7847 0.753048 27.5441 0.468718 27.2195 0.299819C26.8949 0.13092 26.5129 0.0912883 26.1575 0.189642C25.6681 0.332945 25.1993 0.53313 24.7617 0.78564C24.3171 1.03237 23.8112 1.16241 23.2961 1.16241C22.781 1.16241 22.2752 1.03237 21.8305 0.78564C20.8627 0.270528 19.7717 0 18.662 0C17.5524 0 16.4613 0.270528 15.4935 0.78564C15.0441 1.03338 14.5337 1.16388 14.014 1.16388C13.4942 1.16388 12.9838 1.03338 12.5344 0.78564C11.5666 0.270528 10.4756 0 9.3659 0C8.25625 0 7.1652 0.270528 6.19741 0.78564C5.75275 1.03237 5.24691 1.16241 4.7318 1.16241C4.21669 1.16241 3.71086 1.03237 3.2662 0.78564C2.82861 0.53313 2.35978 0.332945 1.87039 0.189642C1.515 0.0912883 1.133 0.13092 0.808409 0.299819C0.48382 0.468718 0.243235 0.753048 0.139581 1.09026C0.0359274 1.42747 0.0776949 1.78995 0.255696 2.09794C0.433696 2.40593 0.733349 2.63421 1.08873 2.73257H1.06082ZM26.1854 13.434C25.6961 13.5773 25.2272 13.7775 24.7896 14.03C24.345 14.2768 23.8391 14.4068 23.324 14.4068C22.8089 14.4068 22.3031 14.2768 21.8584 14.03C20.8906 13.5149 19.7996 13.2444 18.6899 13.2444C17.5803 13.2444 16.4892 13.5149 15.5214 14.03C15.0721 14.2778 14.5616 14.4083 14.0419 14.4083C13.5222 14.4083 13.0117 14.2778 12.5623 14.03C11.5945 13.5149 10.5035 13.2444 9.39382 13.2444C8.28416 13.2444 7.19312 13.5149 6.22532 14.03C5.78067 14.2768 5.27483 14.4068 4.75972 14.4068C4.24461 14.4068 3.73878 14.2768 3.29412 14.03C2.85652 13.7775 2.38769 13.5773 1.89831 13.434C1.72234 13.3853 1.53798 13.37 1.35577 13.3889C1.17355 13.4078 0.997046 13.4606 0.836325 13.5442C0.675605 13.6279 0.533818 13.7407 0.419061 13.8763C0.304303 14.012 0.218822 14.1677 0.167497 14.3347C0.116173 14.5016 0.100011 14.6766 0.119934 14.8495C0.139857 15.0224 0.195475 15.1898 0.283612 15.3423C0.371749 15.4948 0.490679 15.6294 0.633612 15.7383C0.776545 15.8472 0.940681 15.9283 1.11665 15.977C1.38961 16.053 1.65202 16.1597 1.89831 16.2948C2.76345 16.7848 3.7522 17.0435 4.75972 17.0435C5.76724 17.0435 6.75599 16.7848 7.62114 16.2948C8.16614 16.0023 8.78163 15.8486 9.40778 15.8486C10.0339 15.8486 10.6494 16.0023 11.1944 16.2948C12.07 16.7699 13.0612 17.0198 14.0698 17.0198C15.0784 17.0198 16.0696 16.7699 16.9452 16.2948C17.4902 16.0023 18.1057 15.8486 18.7318 15.8486C19.3579 15.8486 19.9734 16.0023 20.5184 16.2948C21.403 16.7745 22.4029 17.03 23.4217 17.0365C24.406 17.0346 25.3711 16.7782 26.2134 16.2948C26.4596 16.1597 26.7221 16.053 26.995 15.977C27.3504 15.8786 27.6501 15.6503 27.8281 15.3423C28.0061 15.0343 28.0478 14.6719 27.9442 14.3347C27.8405 13.9975 27.5999 13.7131 27.2753 13.5442C26.9508 13.3753 26.5687 13.3357 26.2134 13.434H26.1854ZM26.1854 6.81184C25.6961 6.95515 25.2272 7.15533 24.7896 7.40784C24.345 7.65458 23.8391 7.78462 23.324 7.78462C22.8089 7.78462 22.3031 7.65458 21.8584 7.40784C20.8906 6.89273 19.7996 6.6222 18.6899 6.6222C17.5803 6.6222 16.4892 6.89273 15.5214 7.40784C15.0721 7.65558 14.5616 7.78608 14.0419 7.78608C13.5222 7.78608 13.0117 7.65558 12.5623 7.40784C11.5945 6.89273 10.5035 6.6222 9.39382 6.6222C8.28416 6.6222 7.19312 6.89273 6.22532 7.40784C5.78067 7.65458 5.27483 7.78462 4.75972 7.78462C4.24461 7.78462 3.73878 7.65458 3.29412 7.40784C2.85652 7.15533 2.38769 6.95515 1.89831 6.81184C1.71554 6.74637 1.52033 6.71803 1.32529 6.72866C1.13026 6.73928 0.939745 6.78864 0.766078 6.87353C0.592411 6.95842 0.439458 7.07695 0.317113 7.22146C0.194768 7.36598 0.105755 7.53325 0.0558326 7.71246C0.00450841 7.87943 -0.0116537 8.05436 0.00826927 8.22726C0.0281922 8.40016 0.0838099 8.56764 0.171947 8.72014C0.260084 8.87264 0.379014 9.00718 0.521947 9.11607C0.66488 9.22496 0.829017 9.30607 1.00499 9.35477C1.27794 9.43082 1.54035 9.53753 1.78664 9.67264C2.65179 10.1626 3.64053 10.4213 4.64806 10.4213C5.65558 10.4213 6.64433 10.1626 7.50947 9.67264C8.05448 9.38014 8.66997 9.22642 9.29611 9.22642C9.92225 9.22642 10.5377 9.38014 11.0828 9.67264C11.9583 10.1477 12.9495 10.3976 13.9581 10.3976C14.9668 10.3976 15.9579 10.1477 16.8335 9.67264C17.3785 9.38014 17.994 9.22642 18.6201 9.22642C19.2463 9.22642 19.8618 9.38014 20.4068 9.67264C21.2914 10.1523 22.2912 10.4078 23.3101 10.4143C24.2944 10.4124 25.2595 10.156 26.1017 9.67264C26.348 9.53753 26.6104 9.43082 26.8833 9.35477C27.2387 9.25642 27.5384 9.02813 27.7164 8.72014C27.8944 8.41215 27.9362 8.04968 27.8325 7.71246C27.7288 7.37525 27.4883 7.09092 27.1637 6.92202C26.8391 6.75312 26.4571 6.71349 26.1017 6.81184H26.1854Z" fill="#81C7FA"/>
</svg>
