<svg width="30" height="28" viewBox="0 0 30 28" fill="none" xmlns="http://www.w3.org/2000/svg">
<path d="M14.4004 9.46154C14.4267 9.74359 14.6369 9.94872 14.8997 10.0256L20.8657 11.3846C20.9183 11.3846 20.9709 11.4103 21.0234 11.4103C21.2862 11.4103 21.5228 11.2564 21.6279 11L23.9933 5.48718C24.0984 5.23077 24.0459 4.94872 23.8356 4.76923C23.6253 4.58974 23.3362 4.53846 23.0734 4.66667L21.8907 5.25641L20.5766 2.74359C19.9984 1.64103 18.842 1 17.6068 1H12.035C11.4568 1 10.9049 1.17949 10.3792 1.48718C9.93245 1.74359 9.59078 2.07692 9.30168 2.48718L6.069 7.23077C5.96387 7.38462 5.93759 7.5641 5.96387 7.71795C5.99015 7.89744 6.09528 8.02564 6.25297 8.12821L10.7209 10.9231C11.0363 11.1026 11.4305 11.0256 11.6408 10.7436L14.7946 6.02564L15.951 8.20513L14.7683 8.79487C14.5055 8.92308 14.3741 9.17949 14.4004 9.46154ZM10.8786 9.48718L7.56707 7.41026L10.4055 3.17949C10.5632 2.92308 10.7735 2.74359 11.0363 2.58974C11.3517 2.41026 11.6933 2.30769 12.035 2.30769H12.0613C12.5344 2.30769 13.0074 2.58974 13.2177 3L14.1113 4.69231L10.8786 9.48718ZM15.4779 4.4359L14.4004 2.38462C14.3741 2.35897 14.3741 2.30769 14.3478 2.28205H17.6068C18.369 2.28205 19.0523 2.66667 19.3939 3.33333L20.9971 6.4359C21.076 6.58974 21.2074 6.71795 21.3914 6.76923C21.5491 6.82051 21.733 6.82051 21.8907 6.71795L22.0484 6.64103L20.6029 10L16.976 9.17949L17.1337 9.10257C17.2914 9.02564 17.4228 8.89744 17.4754 8.71795C17.5279 8.5641 17.5279 8.38462 17.4228 8.23077L15.4779 4.4359ZM25.2548 10.1282C25.0709 10.0769 24.8869 10.1026 24.7555 10.2051L20.1824 12.7692C19.867 12.9487 19.7619 13.3333 19.9459 13.6667L22.8106 18.5641H20.2875V17.2564C20.2875 16.9744 20.1036 16.7436 19.8407 16.641C19.5779 16.5385 19.2888 16.6154 19.1048 16.8205L15.1626 21.3846C14.9523 21.6154 14.9523 21.9744 15.1626 22.2308L19.1048 26.7692C19.2363 26.9231 19.4202 27 19.6042 27C19.6831 27 19.7619 26.9744 19.8407 26.9487C20.1036 26.8462 20.2875 26.6154 20.2875 26.3333V25.0256H23.1785C24.4401 25.0256 25.5702 24.3333 26.1221 23.2308L28.6452 18.4359C28.6452 18.4103 28.6715 18.4103 28.6715 18.3846V18.359C28.9343 17.8462 29.0394 17.2821 28.9869 16.6923C28.9606 16.2051 28.8029 15.7179 28.5663 15.3077L25.6753 10.359C25.5702 10.2821 25.4388 10.1538 25.2548 10.1282ZM24.9394 22.6923C24.5978 23.359 23.9144 23.7692 23.1785 23.7692H19.6305C19.4465 23.7692 19.2888 23.8462 19.1574 23.9487C19.026 24.0769 18.9734 24.2308 18.9734 24.4103V24.5897L16.5555 21.8205L18.9734 19.0513V19.2308C18.9734 19.5897 19.2625 19.8718 19.6305 19.8718H26.4112L24.9394 22.6923ZM27.6728 16.8462C27.699 17.2051 27.6465 17.5385 27.4888 17.8462V17.8718C27.2785 18.2821 26.8055 18.5641 26.3324 18.5641H24.3612L21.4439 13.5897L24.8606 11.641L27.4362 16.0256C27.5676 16.2821 27.6465 16.5641 27.6728 16.8462ZM1.57479 19.0256L4.57093 23.5128C4.59721 23.5385 4.59721 23.5641 4.62349 23.5897C4.93888 24.0513 5.38567 24.4359 5.93759 24.6923C6.38438 24.8974 6.88374 25 7.3831 25.0256L13.6645 25.0769C13.8485 25.0769 14.0061 25 14.1376 24.8974C14.269 24.7692 14.3215 24.6154 14.3215 24.4359V19.2051C14.3215 19.0256 14.2427 18.8718 14.1376 18.7436C14.0061 18.6154 13.8485 18.5641 13.6645 18.5641H7.40938L8.67091 16.4359L9.82732 17.0769C10.0639 17.2051 10.3792 17.1795 10.5895 17C10.7998 16.8205 10.8786 16.5385 10.7735 16.2821L8.67091 10.6667C8.56579 10.359 8.2504 10.2051 7.93502 10.2564L1.91645 11.359C1.65363 11.4103 1.41709 11.6154 1.39081 11.8974C1.33825 12.1538 1.46966 12.4359 1.7062 12.5641L2.8626 13.2051L1.41709 15.641C0.81261 16.718 0.865174 18 1.57479 19.0256ZM13.0074 19.8462V23.7436L7.3831 23.718C7.06771 23.718 6.80489 23.6667 6.51579 23.5385C6.17413 23.3846 5.91131 23.1538 5.72733 22.8974L5.70105 22.8462C5.43823 22.4615 5.43823 21.9487 5.67477 21.5385L6.6472 19.8718L13.0074 19.8462ZM2.59978 16.2821L4.36067 13.2821C4.43952 13.1282 4.4658 12.9487 4.41324 12.7949C4.36067 12.6154 4.25555 12.4872 4.09785 12.4103L3.96644 12.3077L7.64592 11.641L8.93373 15.0769L8.77604 15C8.61835 14.9231 8.43438 14.8974 8.27668 14.9487C8.11899 15 7.9613 15.1026 7.88245 15.2564L5.72733 18.9231L4.57093 20.9231C4.54465 20.9487 4.54465 21 4.51836 21.0256L2.73119 18.359C2.25812 17.6923 2.23183 16.9231 2.59978 16.2821Z" fill="#81C7FA" stroke="#81C7FA" stroke-width="0.231884"/>
</svg>
