<svg width="24" height="24" viewBox="0 0 24 24" fill="none" xmlns="http://www.w3.org/2000/svg">
<path d="M7.72277 4.77612H5.58416C7.36634 3.22388 9.50495 2.38806 11.8812 2.38806C12.2376 2.38806 12.5941 2.38806 12.9505 2.50746C13.5446 2.62687 14.1386 2.14925 14.2574 1.43284C14.3762 0.835821 13.901 0.238806 13.1881 0.119403C12.7129 -1.15651e-07 12.3564 0 11.8812 0C9.0297 0 6.29703 1.07463 4.15842 2.86567V1.19403C4.15842 0.477612 3.68317 0 2.9703 0C2.25743 0 1.78218 0.477612 1.78218 1.19403V5.97015C1.78218 6.68657 2.25743 7.16418 2.9703 7.16418H7.72277C8.43564 7.16418 8.91089 6.68657 8.91089 5.97015C8.91089 5.25373 8.43564 4.77612 7.72277 4.77612ZM5.94059 14.9254C5.22772 14.9254 4.75248 15.403 4.75248 16.1194V18.2687C3.20792 16.4776 2.37624 14.3284 2.37624 11.9403C2.37624 11.5821 2.37624 11.2239 2.49505 10.8657C2.61386 10.2687 2.13861 9.67164 1.42574 9.55224C0.831683 9.43284 0.237624 9.91045 0.118812 10.6269C-1.15078e-07 11.1045 0 11.4627 0 11.9403C0 14.806 1.06931 17.5522 2.85149 19.7015H1.18812C0.475247 19.7015 0 20.1791 0 20.8955C0 21.6119 0.475247 22.0896 1.18812 22.0896H5.94059C6.29703 22.0896 6.65347 21.8507 6.89109 21.6119C6.89109 21.4925 7.0099 21.3731 7.0099 21.2537C7.0099 21.1343 7.0099 21.1343 7.0099 21.0149V20.8955V16.1194C7.12871 15.403 6.65347 14.9254 5.94059 14.9254ZM22.5743 4.1791C23.2871 4.1791 23.7624 3.70149 23.7624 2.98507C23.7624 2.26866 23.2871 1.79104 22.5743 1.79104H17.8218C17.703 1.79104 17.703 1.79104 17.5842 1.79104C17.4653 1.79104 17.3465 1.91045 17.2277 1.91045C17.1089 2.02985 16.9901 2.02985 16.9901 2.14925C16.9901 2.26866 16.8713 2.38806 16.8713 2.38806C16.8713 2.50746 16.8713 2.50746 16.8713 2.62687V2.74627V7.52239C16.8713 8.23881 17.3465 8.71642 18.0594 8.71642C18.7723 8.71642 19.2475 8.23881 19.2475 7.52239V5.61194C20.7921 7.28358 21.6238 9.55224 21.6238 11.9403C21.6238 12.2985 21.6238 12.6567 21.505 13.0149C21.3861 13.6119 21.8614 14.209 22.5743 14.3284H22.6931C23.2871 14.3284 23.7624 13.8507 23.8812 13.2537C23.8812 12.7761 24 12.4179 24 11.9403C24 9.07463 22.9307 6.32836 21.1485 4.1791H22.5743ZM21.7426 17.3134C21.6238 17.194 21.505 17.0746 21.3861 16.9552C21.2673 16.8358 21.1485 16.8358 21.0297 16.8358H20.9109H20.7921H16.0396C15.3267 16.8358 14.8515 17.3134 14.8515 18.0299C14.8515 18.7463 15.3267 19.2239 16.0396 19.2239H18.1782C16.5149 20.7761 14.2574 21.6119 11.8812 21.6119C11.5248 21.6119 11.1683 21.6119 10.8119 21.4925C10.2178 21.3731 9.62376 21.8507 9.50495 22.5672C9.38614 23.2836 9.86139 23.7612 10.5743 23.8806C11.0495 23.8806 11.4059 24 11.8812 24C14.7327 24 17.4653 22.9254 19.604 21.1343V22.6866C19.604 23.403 20.0792 23.8806 20.7921 23.8806C21.505 23.8806 21.9802 23.403 21.9802 22.6866V17.9104C21.9802 17.6716 21.8614 17.4328 21.7426 17.3134Z" fill="#81C7FA"/>
</svg>
