<svg width="28" height="32" viewBox="0 0 28 32" fill="none" xmlns="http://www.w3.org/2000/svg">
<path d="M6.49616 31H10.0069M13.5176 31H10.0069M10.0069 31V19.2675M10.0069 19.2675L13.5176 16.9693M10.0069 19.2675L6.85934 16.9693M7.34357 20.7189C8.55431 23.3798 11.5808 23.7427 13.7597 20.477C17.9967 20.7189 21.7497 16.9693 17.9967 12.9779C19.0864 9.10726 17.6337 6.44633 15.3334 6.44633C13.7597 -1.17379 6.85934 -0.448037 5.28558 6.44633C2.25911 6.8091 1.2908 10.0749 2.25911 12.9779C-0.888067 16.9693 2.25895 21.8074 7.34357 20.7189Z" stroke="white" stroke-width="1.92935"/>
<path d="M18.5575 27H20.8299M23.1023 27H20.8299M20.8299 27V19.1783M20.8299 19.1783L23.1023 17.6462M20.8299 19.1783L18.7926 17.6462M19.106 20.1459C19.8897 21.9199 21.8486 22.1618 23.259 19.9847C26.0015 20.1459 28.4307 17.6462 26.0015 14.9852C26.7068 12.4048 25.7665 10.6309 24.2776 10.6309C23.259 5.55081 18.7926 6.03464 17.7739 10.6309C15.815 10.8727 15.1882 13.0499 15.815 14.9852C13.7779 17.6462 15.8149 20.8716 19.106 20.1459Z" stroke="white" stroke-width="1.92935"/>
</svg>
