<svg width="18" height="20" viewBox="0 0 18 20" fill="none" xmlns="http://www.w3.org/2000/svg">
<path d="M16.004 4.93548H10.996C10.4666 4.93548 9.95894 5.14306 9.58461 5.51256C9.21029 5.88205 9 6.38319 9 6.90573V17.7717C9 18.8595 9.894 19.7419 10.996 19.7419H16.004C16.5334 19.7419 17.0411 19.5344 17.4154 19.1649C17.7897 18.7954 18 18.2942 18 17.7717V6.90573C18 6.38319 17.7897 5.88205 17.4154 5.51256C17.0411 5.14306 16.5334 4.93548 16.004 4.93548ZM13.5 18.7548C12.81 18.7548 12.25 18.3136 12.25 17.7677C12.25 17.2219 12.81 16.7806 13.5 16.7806C14.19 16.7806 14.75 17.2219 14.75 17.7677C14.75 18.3136 14.19 18.7548 13.5 18.7548ZM16 15.7936H11V6.90968H16V15.7936ZM7 15.7936H2V1.97419H14V2.96129H16V1.97419C16 0.8874 15.1 0 14 0H2C0.9 0 0 0.8874 0 1.97419V17.7677C0 18.8536 0.9 19.7419 2 19.7419H7.555C7.19554 19.1453 7.00394 18.4648 7 17.7707V15.7936Z" fill="white"/>
</svg>
