<svg width="19" height="20" viewBox="0 0 19 20" fill="none" xmlns="http://www.w3.org/2000/svg">
<path d="M16.8955 5.15008H11.8875C11.3581 5.15008 10.8504 5.35766 10.4761 5.72716C10.1018 6.09665 9.89148 6.59779 9.89148 7.12033V17.9863C9.89148 19.0741 10.7855 19.9565 11.8875 19.9565H16.8955C17.4249 19.9565 17.9325 19.749 18.3069 19.3795C18.6812 19.01 18.8915 18.5088 18.8915 17.9863V7.12033C18.8915 6.59779 18.6812 6.09665 18.3069 5.72716C17.9325 5.35766 17.4249 5.15008 16.8955 5.15008ZM14.3915 18.9694C13.7015 18.9694 13.1415 18.5282 13.1415 17.9823C13.1415 17.4365 13.7015 16.9952 14.3915 16.9952C15.0815 16.9952 15.6415 17.4365 15.6415 17.9823C15.6415 18.5282 15.0815 18.9694 14.3915 18.9694ZM16.8915 16.0082H11.8915V7.12428H16.8915V16.0082ZM7.89148 16.0082H2.89148V2.18879H14.8915V3.17589H16.8915V2.18879C16.8915 1.102 15.9915 0.2146 14.8915 0.2146H2.89148C1.79148 0.2146 0.891479 1.102 0.891479 2.18879V17.9823C0.891479 19.0682 1.79148 19.9565 2.89148 19.9565H8.44648C8.08702 19.3599 7.89542 18.6794 7.89148 17.9853V16.0082Z" fill="white"/>
</svg>
