<svg width="19" height="20" viewBox="0 0 19 20" fill="none" xmlns="http://www.w3.org/2000/svg">
<path d="M16.9299 5.15008H11.9219C11.3925 5.15008 10.8848 5.35766 10.5105 5.72716C10.1362 6.09665 9.9259 6.59779 9.9259 7.12033V17.9863C9.9259 19.0741 10.8199 19.9565 11.9219 19.9565H16.9299C17.4593 19.9565 17.967 19.749 18.3413 19.3795C18.7156 19.01 18.9259 18.5088 18.9259 17.9863V7.12033C18.9259 6.59779 18.7156 6.09665 18.3413 5.72716C17.967 5.35766 17.4593 5.15008 16.9299 5.15008ZM14.4259 18.9694C13.7359 18.9694 13.1759 18.5282 13.1759 17.9823C13.1759 17.4365 13.7359 16.9952 14.4259 16.9952C15.1159 16.9952 15.6759 17.4365 15.6759 17.9823C15.6759 18.5282 15.1159 18.9694 14.4259 18.9694ZM16.9259 16.0082H11.9259V7.12428H16.9259V16.0082ZM7.9259 16.0082H2.9259V2.18879H14.9259V3.17589H16.9259V2.18879C16.9259 1.102 16.0259 0.2146 14.9259 0.2146H2.9259C1.8259 0.2146 0.925903 1.102 0.925903 2.18879V17.9823C0.925903 19.0682 1.8259 19.9565 2.9259 19.9565H8.4809C8.12144 19.3599 7.92984 18.6794 7.9259 17.9853V16.0082Z" fill="#062357"/>
</svg>
